<?xml version="1.0" encoding="UTF-8" standalone="no"?>
<!DOCTYPE svg PUBLIC "-//W3C//DTD SVG 1.1//EN" "http://www.w3.org/Graphics/SVG/1.1/DTD/svg11.dtd">
<svg width="100%" height="100%" viewBox="0 0 2238 736" version="1.1" xmlns="http://www.w3.org/2000/svg" xmlns:xlink="http://www.w3.org/1999/xlink" xml:space="preserve" xmlns:serif="http://www.serif.com/" style="fill-rule:evenodd;clip-rule:evenodd;stroke-linejoin:round;stroke-miterlimit:2;">
    <ellipse id="block" cx="1119.5" cy="368" rx="1119.5" ry="368" style="fill:white;"/>
    <path id="white" d="M2057,331C2023.3,331.7 2014,333.7 2014,342C2014,350.3 2055.3,350.3 2081,354C2106.7,357.7 2143,366.7 2143,394C2143,421.3 2099.7,438.7 2025,438C1950.3,437.3 1923,430 1923,430L1923,396C1923,396 1946,404.3 2006,406C2066,407.7 2060,388 2016,386C1972,384 1918.7,372.7 1920,343C1921.3,313.3 1960.7,304.3 2000,301C2039.3,297.7 2092.3,299.7 2127,304L2127,338C2127,338 2090.7,330.3 2057,331ZM1133,80C761.6,80 446.3,162.5 334,277L135.9,277C262.9,142.8 657.4,45 1124.5,45C1591.6,45 1986.2,142.8 2113.1,277L1932,277C1819.7,162.5 1504.4,80 1133,80ZM288,375L320,301L459,301L459,436L373,436L373,329L324,436L246,436L197,329L197,436L117,436L116,302L255,302L288,375ZM580,407L564,436L471,436L557,301L686,301L773,436L675,436L659,407L580,407ZM620,330L592,374L647,374L620,330ZM1051,301L1052,436L914,436L864,338L864,436L784,436L784,301L924,301L971,398L971,301L1051,301ZM1175,436L1085,436L1085,302L1198,302C1247.3,302 1342,296.7 1342,367C1342,437.3 1253.3,436 1175,436ZM1244,367C1244,329.5 1210,332 1210,332L1178,332L1178,402L1203,402C1216.8,402 1244,402.5 1244,367ZM1609,409C1613.3,426 1619,436 1619,436L1522,436C1520,433.3 1519,424.7 1515,410C1511,395.3 1504.3,390 1487,390L1461,390L1461,436L1367,436L1367,302C1367,302 1484.3,301 1514,301C1543.7,301 1614,302.3 1614,336C1614,369.7 1555,374 1555,374C1588.7,374.7 1604.7,392 1609,409ZM1481,331L1457,331L1457,360L1487,360C1501.7,360 1520,357.7 1520,345C1520,332.3 1497.3,331 1481,331ZM1632,369C1632,319.7 1692.7,299 1767.5,299C1842.3,299 1904,317.7 1904,369C1904,418.7 1842.3,439 1767.5,439C1692.7,439 1632,417.3 1632,369ZM1806,368.5C1806,339.5 1789.4,331 1769,331C1748.6,331 1730,338.5 1730,368.5C1730,397.9 1748.6,406 1769,406C1789.4,406 1806,399.5 1806,368.5ZM1133,659C1502.2,659 1816,577.5 1930.1,464L2112.2,464C1984.2,597.7 1590.5,695 1124.5,695C658.5,695 264.8,597.7 136.8,464L336,464C450,577.5 763.8,659 1133,659Z" style="fill:rgb(28,41,50);"/>
</svg>
