<?xml version="1.0" encoding="utf-8"?>
<!-- Generator: Adobe Illustrator 25.1.0, SVG Export Plug-In . SVG Version: 6.00 Build 0)  -->
<svg version="1.1" id="logo" xmlns="http://www.w3.org/2000/svg" xmlns:xlink="http://www.w3.org/1999/xlink" x="0px" y="0px"
	 viewBox="0 0 2238 736" style="enable-background:new 0 0 2238 736;" xml:space="preserve">
<style type="text/css">
	.st0{fill-rule:evenodd;clip-rule:evenodd;fill:#FFFFFF;}
</style>
<ellipse id="block" cx="1119.5" cy="368" rx="1119.5" ry="368"/>
<path id="white" class="st0" d="M2057,331c-33.7,0.7-43,2.7-43,11s41.3,8.3,67,12s62,12.7,62,40s-43.3,44.7-118,44s-102-8-102-8v-34
	c0,0,23,8.3,83,10s54-18,10-20s-97.3-13.3-96-43s40.7-38.7,80-42s92.3-1.3,127,3v34C2127,338,2090.7,330.3,2057,331z M1133,80
	c-371.4,0-686.7,82.5-799,197H135.9c127-134.2,521.5-232,988.6-232s861.7,97.8,988.6,232H1932C1819.7,162.5,1504.4,80,1133,80z
	 M288,375l32-74h139v135h-86V329l-49,107h-78l-49-107v107h-80l-1-134h139L288,375z M580,407l-16,29h-93l86-135h129l87,135h-98
	l-16-29H580z M620,330l-28,44h55L620,330z M1051,301l1,135H914l-50-98v98h-80V301h140l47,97v-97H1051z M1175,436h-90V302h113
	c49.3,0,144-5.3,144,65S1253.3,436,1175,436z M1244,367c0-37.5-34-35-34-35h-32v70h25C1216.8,402,1244,402.5,1244,367z M1609,409
	c4.3,17,10,27,10,27h-97c-2-2.7-3-11.3-7-26s-10.7-20-28-20h-26v46h-94V302c0,0,117.3-1,147-1s100,1.3,100,35s-59,38-59,38
	C1588.7,374.7,1604.7,392,1609,409z M1481,331h-24v29h30c14.7,0,33-2.3,33-15S1497.3,331,1481,331z M1632,369
	c0-49.3,60.7-70,135.5-70s136.5,18.7,136.5,70c0,49.7-61.7,70-136.5,70S1632,417.3,1632,369z M1806,368.5c0-29-16.6-37.5-37-37.5
	s-39,7.5-39,37.5c0,29.4,18.6,37.5,39,37.5S1806,399.5,1806,368.5z M1133,659c369.2,0,683-81.5,797.1-195h182.1
	c-128,133.7-521.7,231-987.7,231s-859.7-97.3-987.7-231H336C450,577.5,763.8,659,1133,659z"/>
</svg>
