<svg width="20" height="20" viewBox="0 0 20 20" fill="none" xmlns="http://www.w3.org/2000/svg">
<path d="M11.603 9.8329L9.357 8.7849C9.161 8.6939 9 8.7959 9 9.0129V10.9869C9 11.2039 9.161 11.3059 9.357 11.2149L11.602 10.1669C11.799 10.0749 11.799 9.9249 11.603 9.8329ZM10 0.399902C4.698 0.399902 0.400002 4.6979 0.400002 9.9999C0.400002 15.3019 4.698 19.5999 10 19.5999C15.302 19.5999 19.6 15.3019 19.6 9.9999C19.6 4.6979 15.302 0.399902 10 0.399902ZM10 13.8999C5.086 13.8999 5 13.4569 5 9.9999C5 6.5429 5.086 6.0999 10 6.0999C14.914 6.0999 15 6.5429 15 9.9999C15 13.4569 14.914 13.8999 10 13.8999Z" fill="#F37121"/>
</svg>
